# xmcd
#
# Track frame offsets:
#	150
#	11145
#	29239
#	44628
#	59212
#	77251
#	90982
#	110588
#	132911
#	153226
#	167085
#
# Disc length: 2413 seconds
#
# Revision: 1
# Processed by: cddbd v1.5.1PL0 Copyright (c) Steve Scherf et al.
# Submitted via: EasyCDDAExtractor 8.0.1.1
#
DISCID=90096b0b
DTITLE=Todd Williams - Ten 'Till Midnight
DYEAR=2004
DGENRE=Country
TTITLE0=Little Sister
TTITLE1=Through The Eyes Of Love
TTITLE2=Broken Chain
TTITLE3=I'd Be A Legend
TTITLE4=Doing The Best I Can
TTITLE5=Wasted Days and Wasted Nights
TTITLE6=Love Of My Life
TTITLE7=Dream Tonight
TTITLE8=The Closer I Get To You
TTITLE9=I Saw The Light
TTITLE10=You Got It
EXTD=
EXTT0=
EXTT1=
EXTT2=
EXTT3=
EXTT4=
EXTT5=
EXTT6=
EXTT7=
EXTT8=
EXTT9=
EXTT10=
PLAYORDER=
